<svg width="128" height="128" viewBox="0 0 128 128" fill="none" xmlns="http://www.w3.org/2000/svg">
  <rect width="128" height="128" rx="28" fill="#FFFFFF" stroke="#E8E8E8" stroke-width="1"></rect>
  <defs><clipPath id="netclip128"><circle cx="64" cy="62" r="29"></circle></clipPath></defs>
  <circle cx="64" cy="62" r="30" stroke="#1A1A1A" stroke-width="4.5" fill="none" stroke-linecap="round"></circle>
  <line x1="35" y1="52" x2="93" y2="52" stroke="#1A1A1A" stroke-width="2.5" clip-path="url(#netclip128)" stroke-opacity=".5"></line>
  <line x1="35" y1="62" x2="93" y2="62" stroke="#1A1A1A" stroke-width="2.5" clip-path="url(#netclip128)" stroke-opacity=".9"></line>
  <line x1="35" y1="72" x2="93" y2="72" stroke="#1A1A1A" stroke-width="2.5" clip-path="url(#netclip128)" stroke-opacity=".5"></line>
  <line x1="54" y1="33" x2="54" y2="91" stroke="#1A1A1A" stroke-width="2.5" clip-path="url(#netclip128)" stroke-opacity=".5"></line>
  <line x1="64" y1="33" x2="64" y2="91" stroke="#1A1A1A" stroke-width="2.5" clip-path="url(#netclip128)" stroke-opacity=".9"></line>
  <line x1="74" y1="33" x2="74" y2="91" stroke="#1A1A1A" stroke-width="2.5" clip-path="url(#netclip128)" stroke-opacity=".5"></line>
  <path d="M 52 90 Q 64 104 76 90" stroke="#1A1A1A" stroke-width="4" fill="none" stroke-linecap="round"></path>
  <line x1="64" y1="103" x2="64" y2="110" stroke="#1A1A1A" stroke-width="4" stroke-linecap="round"></line>
  <circle cx="98" cy="26" r="3" fill="#888888"></circle>
  <line x1="98" y1="16" x2="98" y2="22" stroke="#888888" stroke-width="2.5" stroke-linecap="round"></line>
  <line x1="88" y1="26" x2="94" y2="26" stroke="#888888" stroke-width="2.5" stroke-linecap="round"></line>
  <line x1="91" y1="19" x2="95" y2="23" stroke="#888888" stroke-width="2" stroke-linecap="round"></line>
  <line x1="105" y1="19" x2="101" y2="23" stroke="#888888" stroke-width="2" stroke-linecap="round"></line>
  <line x1="105" y1="33" x2="101" y2="29" stroke="#888888" stroke-width="2" stroke-linecap="round"></line>
</svg>