<svg width="320" height="52" viewBox="0 0 320 52" fill="none" xmlns="http://www.w3.org/2000/svg">
  
  <rect width="48" height="48" rx="10" fill="#FFFFFF" stroke="#E8E8E8" stroke-width=".5" y="2"></rect>
  <defs><clipPath id="wmclip"><circle cx="24" cy="25" r="11"></circle></clipPath></defs>
  <circle cx="24" cy="25" r="11" stroke="#1A1A1A" stroke-width="1.8" fill="none"></circle>
  <line x1="13" y1="21" x2="35" y2="21" stroke="#1A1A1A" stroke-width="1.2" clip-path="url(#wmclip)" stroke-opacity=".5"></line>
  <line x1="13" y1="25" x2="35" y2="25" stroke="#1A1A1A" stroke-width="1.2" clip-path="url(#wmclip)"></line>
  <line x1="13" y1="29" x2="35" y2="29" stroke="#1A1A1A" stroke-width="1.2" clip-path="url(#wmclip)" stroke-opacity=".5"></line>
  <line x1="20" y1="14" x2="20" y2="36" stroke="#1A1A1A" stroke-width="1.2" clip-path="url(#wmclip)" stroke-opacity=".5"></line>
  <line x1="24" y1="14" x2="24" y2="36" stroke="#1A1A1A" stroke-width="1.2" clip-path="url(#wmclip)"></line>
  <line x1="28" y1="14" x2="28" y2="36" stroke="#1A1A1A" stroke-width="1.2" clip-path="url(#wmclip)" stroke-opacity=".5"></line>
  <path d="M 19 35 Q 24 41 29 35" stroke="#1A1A1A" stroke-width="1.6" fill="none" stroke-linecap="round"></path>
  <line x1="24" y1="40.5" x2="24" y2="43.5" stroke="#1A1A1A" stroke-width="1.6" stroke-linecap="round"></line>
  <circle cx="37" cy="11" r="1.2" fill="#888888"></circle>
  <line x1="37" y1="7" x2="37" y2="9.5" stroke="#888888" stroke-width="1.2" stroke-linecap="round"></line>
  <line x1="33" y1="11" x2="35.5" y2="11" stroke="#888888" stroke-width="1.2" stroke-linecap="round"></line>
  
  <text x="62" y="25" font-family="&#39;Plus Jakarta Sans&#39;, Helvetica, sans-serif" font-size="20" font-weight="800" letter-spacing="-0.4" fill="#1A1A1A">Captio <tspan font-weight="300">Genie</tspan></text>
  
  <text x="63" y="40" font-family="&#39;Plus Jakarta Sans&#39;, Helvetica, sans-serif" font-size="10" font-weight="500" letter-spacing="1.2" fill="#888888">CAPTURA TUS DATOS</text>
</svg>